<svg xmlns="http://www.w3.org/2000/svg" width="49" height="49" viewBox="0 0 49 49" fill="none">
  <path d="M48.1203 15.3942C48.1203 14.3735 47.7303 13.3946 47.0361 12.6729C46.342 11.9511 45.4005 11.5457 44.4187 11.5457H37.0156V3.84855C37.0156 2.82785 36.6256 1.84896 35.9314 1.12721C35.2373 0.405471 34.2958 0 33.3141 0H3.70156C2.71985 0 1.77834 0.405471 1.08416 1.12721C0.389985 1.84896 0 2.82785 0 3.84855V34.637C0.00108667 34.999 0.100375 35.3534 0.286459 35.6593C0.472543 35.9653 0.737874 36.2105 1.05197 36.3668C1.36606 36.523 1.71618 36.584 2.0621 36.5427C2.40802 36.5013 2.73571 36.3594 3.00752 36.1331L11.1047 29.3452V36.5612C11.1047 37.5819 11.4947 38.5608 12.1888 39.2826C12.883 40.0043 13.8245 40.4098 14.8062 40.4098H36.4581L45.1128 47.6788C45.4403 47.9542 45.8483 48.1052 46.2695 48.1069C46.7604 48.1069 47.2311 47.9042 47.5782 47.5433C47.9253 47.1824 48.1203 46.693 48.1203 46.1826V15.3942ZM38.2765 36.9894C37.949 36.714 37.5409 36.563 37.1197 36.5612H14.8062V28.8641H33.3141C34.2958 28.8641 35.2373 28.4587 35.9314 27.7369C36.6256 27.0152 37.0156 26.0363 37.0156 25.0156V15.3942H44.4187V42.1537L38.2765 36.9894Z" fill="#1500FF"/>
</svg>