<svg xmlns="http://www.w3.org/2000/svg" width="48" height="48" viewBox="0 0 48 48" fill="none">
  <path fill-rule="evenodd" clip-rule="evenodd" d="M22.1121 0.780773C22.6128 0.280844 23.2919 0 24 0C24.7081 0 25.3872 0.280844 25.8879 0.780773L41.9098 16.781L47.2504 22.1144C47.7368 22.6173 48.006 23.2909 47.9999 23.9901C47.9938 24.6893 47.713 25.3582 47.2179 25.8526C46.7228 26.347 46.053 26.6275 45.3529 26.6335C44.6527 26.6396 43.9782 26.3708 43.4746 25.8851L42.6922 25.1037V42.6666C42.6922 44.0811 42.1295 45.4377 41.128 46.4379C40.1264 47.4381 38.768 48 37.3516 48H29.3406C28.6324 48 27.9532 47.719 27.4524 47.2189C26.9516 46.7188 26.6703 46.0406 26.6703 45.3333V37.3332H21.3297V45.3333C21.3297 46.0406 21.0484 46.7188 20.5476 47.2189C20.0468 47.719 19.3676 48 18.6594 48H10.6484C9.23202 48 7.87361 47.4381 6.87205 46.4379C5.87048 45.4377 5.30781 44.0811 5.30781 42.6666V25.1037L4.52541 25.8851C4.02178 26.3708 3.34726 26.6396 2.64711 26.6335C1.94696 26.6275 1.27721 26.347 0.782117 25.8526C0.287019 25.3582 0.00618504 24.6893 0.000100945 23.9901C-0.00598315 23.2909 0.263169 22.6173 0.749588 22.1144L6.09021 16.781L22.1121 0.780773Z" fill="#FF0000"/>
</svg>