<svg xmlns="http://www.w3.org/2000/svg" width="49" height="49" viewBox="0 0 49 49" fill="none">
  <path fill-rule="evenodd" clip-rule="evenodd" d="M22.1675 0.782512C22.6695 0.28147 23.3503 0 24.0602 0C24.77 0 25.4508 0.28147 25.9528 0.782512L42.0148 16.8183L47.3688 22.1636C47.8565 22.6677 48.1263 23.3428 48.1202 24.0435C48.1141 24.7443 47.8326 25.4146 47.3362 25.9102C46.8399 26.4057 46.1685 26.6868 45.4666 26.6929C44.7647 26.6989 44.0884 26.4296 43.5835 25.9427L42.7992 25.1596V42.7616C42.7992 44.1793 42.2351 45.5389 41.231 46.5413C40.227 47.5437 38.8651 48.1069 37.4452 48.1069H29.4142C28.7042 48.1069 28.0233 47.8253 27.5212 47.3241C27.0192 46.8229 26.7372 46.1431 26.7372 45.4343V37.4164H21.3831V45.4343C21.3831 46.1431 21.1011 46.8229 20.5991 47.3241C20.097 47.8253 19.4161 48.1069 18.7061 48.1069H10.6751C9.25515 48.1069 7.89334 47.5437 6.88927 46.5413C5.8852 45.5389 5.32111 44.1793 5.32111 42.7616V25.1596L4.53675 25.9427C4.03186 26.4296 3.35565 26.6989 2.65374 26.6929C1.95184 26.6868 1.28042 26.4057 0.784077 25.9102C0.287738 25.4146 0.00620054 24.7443 0.000101198 24.0435C-0.00599814 23.3428 0.263829 22.6677 0.751467 22.1636L6.10548 16.8183L22.1675 0.782512Z" fill="white"/>
</svg>