<svg xmlns="http://www.w3.org/2000/svg" width="45" height="49" viewBox="0 0 45 49" fill="none">
  <path d="M13.1155 43.8782C14.1819 45.2018 15.5407 46.2702 17.0894 47.0027C18.638 47.7353 20.336 48.1128 22.0551 48.1068C23.7742 48.1128 25.4722 47.7353 27.0209 47.0027C28.5696 46.2702 29.9284 45.2018 30.9948 43.8782C25.0621 44.6676 19.0481 44.6676 13.1155 43.8782ZM38.5964 16.8374V18.5308C38.5964 20.5633 39.1845 22.5501 40.2922 24.241L43.0074 28.3854C45.4849 32.1714 43.5931 37.3165 39.2825 38.5119C28.0192 41.6436 16.0911 41.6436 4.82774 38.5119C0.517219 37.3165 -1.37461 32.1714 1.1029 28.3854L3.81812 24.241C4.92962 22.5365 5.51906 20.5545 5.51635 18.5308V16.8374C5.51635 7.53834 12.9219 0 22.0551 0C31.1884 0 38.5964 7.53834 38.5964 16.8374Z" fill="#D5D501"/>
</svg>