<svg xmlns="http://www.w3.org/2000/svg" width="49" height="49" viewBox="0 0 49 49" fill="none">
  <path d="M42.1053 18.0401H30.0752V6.01336C30.0752 4.41852 29.4415 2.889 28.3134 1.76127C27.1854 0.633549 25.6554 0 24.0602 0C22.4649 0 20.9349 0.633549 19.8069 1.76127C18.6788 2.889 18.0451 4.41852 18.0451 6.01336L18.2586 18.0401H6.01504C4.41975 18.0401 2.8898 18.6736 1.76176 19.8014C0.633725 20.9291 0 22.4586 0 24.0535C0 25.6483 0.633725 27.1778 1.76176 28.3055C2.8898 29.4333 4.41975 30.0668 6.01504 30.0668L18.2586 29.8533L18.0451 42.0935C18.0451 43.6884 18.6788 45.2179 19.8069 46.3456C20.9349 47.4734 22.4649 48.1069 24.0602 48.1069C25.6554 48.1069 27.1854 47.4734 28.3134 46.3456C29.4415 45.2179 30.0752 43.6884 30.0752 42.0935V29.8533L42.1053 30.0668C43.7006 30.0668 45.2305 29.4333 46.3585 28.3055C47.4866 27.1778 48.1203 25.6483 48.1203 24.0535C48.1203 22.4586 47.4866 20.9291 46.3585 19.8014C45.2305 18.6736 43.7006 18.0401 42.1053 18.0401Z" fill="#00D200"/>
</svg>