<svg xmlns="http://www.w3.org/2000/svg" width="56" height="56" viewBox="0 0 56 56" fill="none">
  <path d="M7.43586 46.9807C7.58635 47.0203 7.74623 46.9984 7.88085 46.9197C8.01546 46.841 8.11397 46.7119 8.15501 46.5603C9.36535 41.9962 14.2843 40.8133 17.2243 40.1055C17.9611 39.9285 18.5428 39.7884 18.9211 39.6233C22.2701 38.1542 23.3618 35.7908 23.6885 34.0663C23.7079 33.9637 23.7002 33.8577 23.6661 33.7591C23.6321 33.6605 23.5729 33.5727 23.4946 33.5046C21.7507 31.9832 20.2795 29.6994 19.3512 27.0723C19.325 26.997 19.2838 26.9278 19.2302 26.8692C18.0022 25.5201 17.2972 24.0937 17.2972 22.9571C17.2972 22.2932 17.5451 21.8479 18.1033 21.5118C18.1869 21.4613 18.2568 21.3905 18.3066 21.3059C18.3564 21.2214 18.3847 21.1256 18.3888 21.0272C18.6485 14.9774 22.9117 10.215 28.1409 10.1841L28.2666 10.1924C33.5216 10.266 37.7577 15.1306 37.9093 21.2659C37.9114 21.3498 37.9312 21.4322 37.9673 21.5078C38.0033 21.5834 38.0549 21.6503 38.1185 21.7042C38.4863 22.0189 38.6579 22.4179 38.6579 22.9595C38.6579 23.9108 38.1561 25.0806 37.2466 26.2516C37.2032 26.308 37.1698 26.3715 37.1479 26.4393C36.2078 29.4511 34.5204 32.1103 32.5204 33.7373C32.4375 33.805 32.3743 33.894 32.3375 33.995C32.3007 34.096 32.2916 34.2052 32.3112 34.311C32.6379 36.0342 33.7296 38.3964 37.0785 39.8679C37.4745 40.0413 38.0891 40.1767 38.8682 40.3465C41.7789 40.9831 46.6496 42.0508 47.8447 46.5603C47.8647 46.6356 47.8993 46.7062 47.9463 46.768C47.9934 46.8299 48.052 46.8817 48.1189 46.9207C48.1858 46.9596 48.2596 46.9848 48.3362 46.9949C48.4127 47.005 48.4905 46.9998 48.565 46.9795C48.6395 46.9592 48.7094 46.9243 48.7706 46.8768C48.8317 46.8292 48.8831 46.7699 48.9216 46.7023C48.9601 46.6347 48.9851 46.5601 48.9951 46.4828C49.005 46.4054 48.9999 46.3268 48.9798 46.2515C47.5991 41.0413 42.0809 39.8335 39.1173 39.185C38.4299 39.0342 37.8365 38.9048 37.5474 38.7765C35.3617 37.8169 34.0151 36.3549 33.5392 34.4238C35.5686 32.6625 37.2666 29.9452 38.2372 26.8977C39.2677 25.5438 39.8341 24.1495 39.8341 22.9583C39.8341 22.1638 39.5803 21.5011 39.0774 20.9833C38.7977 14.3277 34.0985 9.0867 28.2666 9.00238L28.0915 9C22.3653 9.03088 17.6462 14.1342 17.2337 20.6745C16.4981 21.2208 16.1244 21.9868 16.1244 22.9595C16.1244 24.3645 16.9106 26.045 18.2866 27.5865C19.2372 30.2267 20.7108 32.5461 22.4652 34.1696C21.9916 36.1079 20.6438 37.5746 18.4535 38.5354C18.1703 38.6601 17.6062 38.7967 16.9529 38.9534C13.967 39.6708 8.41118 41.0069 7.01988 46.2539C6.9797 46.406 7.00095 46.568 7.07896 46.7043C7.15696 46.8406 7.28534 46.94 7.43586 46.9807Z" fill="black"/>
  <rect x="0.5" y="0.5" width="55" height="55" rx="26.5" stroke="black"/>
</svg>