<svg xmlns="http://www.w3.org/2000/svg" width="38" height="38" viewBox="0 0 38 38" fill="none">
  <path fill-rule="evenodd" clip-rule="evenodd" d="M17.3704 0.878967C14.7409 0.879191 12.1495 1.50807 9.81255 2.71314C7.47557 3.9182 5.46073 5.66451 3.93614 7.80637C2.41155 9.94822 1.42142 12.4235 1.04835 15.0257C0.675273 17.6279 0.930083 20.2816 1.79151 22.7654C2.65295 25.2491 4.09602 27.4909 6.00034 29.3037C7.90466 31.1165 10.215 32.4477 12.7386 33.1863C15.2622 33.9249 17.9259 34.0495 20.5075 33.5496C23.0891 33.0497 25.5136 31.9399 27.5789 30.3127L34.6639 37.3958C35.0298 37.7491 35.5199 37.9446 36.0285 37.9401C36.5372 37.9357 37.0238 37.7318 37.3835 37.3722C37.7432 37.0126 37.9472 36.5261 37.9516 36.0176C37.956 35.509 37.7605 35.0191 37.4071 34.6533L30.3221 27.5703C32.2389 25.1394 33.4323 22.2181 33.7659 19.1407C34.0994 16.0634 33.5596 12.9543 32.2083 10.1693C30.8569 7.38436 28.7485 5.036 26.1245 3.393C23.5004 1.75001 20.4667 0.878759 17.3704 0.878967ZM4.7602 17.3647C4.7602 14.0212 6.08877 10.8146 8.45365 8.45038C10.8185 6.08616 14.026 4.75796 17.3704 4.75796C20.7149 4.75796 23.9223 6.08616 26.2872 8.45038C28.6521 10.8146 29.9807 14.0212 29.9807 17.3647C29.9807 20.7082 28.6521 23.9148 26.2872 26.279C23.9223 28.6432 20.7149 29.9714 17.3704 29.9714C14.026 29.9714 10.8185 28.6432 8.45365 26.279C6.08877 23.9148 4.7602 20.7082 4.7602 17.3647Z" fill="#5F5F5F"/>
</svg>