<svg width="21" height="18" viewBox="0 0 21 18" fill="none" xmlns="http://www.w3.org/2000/svg">
<path fill-rule="evenodd" clip-rule="evenodd" d="M1.29101 0.309093C1.15245 0.250848 0.99959 0.235577 0.852248 0.26526C0.704906 0.294944 0.569882 0.368212 0.464686 0.475564C0.359489 0.582916 0.288974 0.719399 0.262285 0.867312C0.235596 1.01523 0.253965 1.16775 0.315009 1.30509L3.40801 8.25009H11C11.1989 8.25009 11.3897 8.32911 11.5303 8.46976C11.671 8.61042 11.75 8.80118 11.75 9.00009C11.75 9.19901 11.671 9.38977 11.5303 9.53042C11.3897 9.67108 11.1989 9.75009 11 9.75009H3.40801L0.315009 16.6951C0.253965 16.8324 0.235596 16.985 0.262285 17.1329C0.288974 17.2808 0.359489 17.4173 0.464686 17.5246C0.569882 17.632 0.704906 17.7052 0.852248 17.7349C0.99959 17.7646 1.15245 17.7493 1.29101 17.6911L20.291 9.69109C20.4269 9.63375 20.5429 9.53762 20.6244 9.41471C20.7059 9.29181 20.7494 9.14759 20.7494 9.00009C20.7494 8.8526 20.7059 8.70838 20.6244 8.58548C20.5429 8.46257 20.4269 8.36643 20.291 8.30909L1.29101 0.309093Z" fill="#0000FF"/>
</svg>
