<svg xmlns="http://www.w3.org/2000/svg" width="21" height="22" viewBox="0 0 21 22" fill="none">
  <path d="M2.625 21.9092C1.92881 21.9092 1.26113 21.6019 0.768845 21.0548C0.276562 20.5077 0 19.7657 0 18.9921V14.8248C4.44604e-09 14.4932 0.118526 14.1752 0.329505 13.9408C0.540483 13.7063 0.826631 13.5746 1.125 13.5746C1.42337 13.5746 1.70952 13.7063 1.9205 13.9408C2.13147 14.1752 2.25 14.4932 2.25 14.8248V18.9921C2.25 19.2221 2.418 19.4088 2.625 19.4088H18.375C18.4745 19.4088 18.5698 19.3649 18.6402 19.2868C18.7105 19.2086 18.75 19.1026 18.75 18.9921V14.8248C18.75 14.4932 18.8685 14.1752 19.0795 13.9408C19.2905 13.7063 19.5766 13.5746 19.875 13.5746C20.1734 13.5746 20.4595 13.7063 20.6705 13.9408C20.8815 14.1752 21 14.4932 21 14.8248V18.9921C21 19.7657 20.7234 20.5077 20.2312 21.0548C19.7389 21.6019 19.0712 21.9092 18.375 21.9092H2.625Z" fill="black"/>
  <path d="M16.17 6.4401C16.2744 6.55612 16.3572 6.69385 16.4137 6.84544C16.4703 6.99702 16.4993 7.15949 16.4993 7.32357C16.4993 7.48764 16.4703 7.65011 16.4137 7.80169C16.3572 7.95328 16.2744 8.09101 16.17 8.20703C16.0656 8.32305 15.9417 8.41508 15.8053 8.47787C15.6689 8.54066 15.5227 8.57298 15.375 8.57298C15.2274 8.57298 15.0812 8.54066 14.9448 8.47787C14.8084 8.41508 14.6844 8.32305 14.58 8.20703L11.625 4.92487V14.408C11.625 14.7395 11.5065 15.0575 11.2955 15.292C11.0845 15.5265 10.7984 15.6582 10.5 15.6582C10.2017 15.6582 9.91552 15.5265 9.70454 15.292C9.49356 15.0575 9.37503 14.7395 9.37503 14.408V4.92487L6.42003 8.20703C6.31563 8.32305 6.19169 8.41508 6.05528 8.47787C5.91888 8.54066 5.77268 8.57298 5.62503 8.57298C5.47739 8.57298 5.33119 8.54066 5.19478 8.47787C5.05838 8.41508 4.93443 8.32305 4.83003 8.20703C4.72563 8.09101 4.64282 7.95328 4.58631 7.80169C4.52981 7.65011 4.50073 7.48764 4.50073 7.32357C4.50073 7.15949 4.52981 6.99702 4.58631 6.84544C4.64282 6.69385 4.72563 6.55612 4.83003 6.4401L9.70503 1.0226C9.91597 0.788485 10.2019 0.656982 10.5 0.656982C10.7982 0.656982 11.0841 0.788485 11.295 1.0226L16.17 6.4401Z" fill="black"/>
</svg>